<svg height="512" viewBox="0 0 58 52" width="512" xmlns="http://www.w3.org/2000/svg"><g id="Page-1" fill="none" fill-rule="evenodd"><g id="002---Lawn-Mower" fill-rule="nonzero"><path id="Shape" d="m47 44.7v-6.7h-14v7z" fill="#35495e"/><path id="Shape" d="m11 14c-.5522847 0-1 .4477153-1 1v6c0 .5522847.4477153 1 1 1s1-.4477153 1-1v-6c0-.5522847-.4477153-1-1-1z" fill="#95a5a5"/><path id="Shape" d="m35 40.831c-.1981525.0001358-.3918051-.0590745-.556-.17-4.7-3.15-31.932-25.163-32.974-26-.43105822-.3465587-.49955863-.9769417-.15299996-1.408.34655867-.4310582.97694171-.4995586 1.40799996-.153 1.038.837 28.206 22.8 32.832 25.9.366016.2450113.5286277.7006512.4004398 1.1220371-.1281878.421386-.5169876.7092835-.9574398.7089629z" fill="#35495e"/><path id="Shape" d="m2 16c-1.1045695 0-2-.8954305-2-2v-5c0-1.1045695.8954305-2 2-2s2 .8954305 2 2v5c0 1.1045695-.8954305 2-2 2z" fill="#e64c3c"/><path id="Shape" d="m23.73 38.02-5.45 11c-5.73-.05-11.83-1.68-15.02-6.83-2.24-3.63-2.66-8.1-2.32-12.26.22-2.57.63-5.72 3.24-7.02z" fill="#35495e"/><path id="Shape" d="m29.38 40.53c.96.24 11.66 2.79 17.62 4.17.51.12.98.23 1.41.32l1.61 5.98h-22.42z" fill="#547580"/><path id="Shape" d="m31 37v-4h18v4c0 .5522847-.4477153 1-1 1h-16c-.5522847 0-1-.4477153-1-1z" fill="#e64c3c"/><path id="Shape" d="m49 33h-18v-2c0-1.1045695.8954305-2 2-2h8c3.147573 0 6.1114562 1.4819416 8 4z" fill="#c03a2b"/><path id="Shape" d="m11.968 45.1c-.1095025-.0000242-.2182665-.0179263-.322-.053-2.06002249-.6398961-3.88191773-1.8806096-5.232-3.563-2.386-3.085-2.693-7.434-2.531-10.538.00938511-.2664481.12659727-.5176555.32476004-.6960208.19816278-.1783654.46027679-.2685877.72623996-.2499792.55142524.0290601.97492691.4995678.946 1.051-.145 2.766.105 6.609 2.116 9.21 1.11167762 1.3693432 2.6063186 2.3762153 4.293 2.892.4634737.1572157.7450608.6267794.6654466 1.109673s-.4970341.8372127-.9864466.837327z" fill="#3f5c6c"/><g fill="#4fba6f"><path id="Shape" d="m21.985 2.019h-.038c-.319-.013-.639-.019-.963-.019-.5522847 0-1-.44771525-1-1s.4477153-1 1-1c.349 0 .7.007 1.039.02.5522847.01049343.9914934.46671526.981 1.019s-.4667153.99149339-1.019.981z"/><path id="Shape" d="m43.268 20.939c-.4642033-.0003069-.8671617-.3200231-.973-.772-.15-.641-.324-1.286-.517-1.915-.1524817-.5248665.144691-1.0749222.6672652-1.2350836.5225742-.1601613 1.0769282.128914 1.2447348.6490836.206.672.392 1.36.552 2.045.0696245.2973272-.0004211.6101714-.1901849.8494218-.1897637.2392504-.4784448.3786817-.7838151.3785782zm-2-5.807c-.3882019.0001311-.7414024-.2244202-.906-.576-.28-.6-.585-1.189-.9-1.755-.1813229-.311388-.1810984-.6962476.0005876-1.0074238.1816859-.3111763.516734-.5005429.8770352-.4956937s.6901316.2031643.8633772.5191175c.345.61.672 1.246.974 1.891.1445859.3088206.1218433.6700302-.0603351.958277-.1821785.2882468-.4986788.4637948-.8396649.465723zm-3.237-5.216c-.3020553.00017959-.5880072-.13618049-.778-.371-.415-.513-.853-1.007-1.3-1.468-.2526619-.25562143-.3487097-.62717189-.2515816-.97321593.0971282-.34604404.3724902-.61334666.721266-.70015569.3487757-.08680904.7173101.02023011.9653156.28037162.489.5.967 1.044 1.419 1.6.2423724.29955726.2910684.711722.1251786 1.05951427-.1658899.34779227-.516849.56932958-.9021786.56948573zm-4.481-4.187c-.2030121-.0003023-.4011241-.06238667-.568-.178-.534-.369-1.091-.715-1.657-1.028-.4835253-.26702968-.6590297-.8754747-.392-1.359s.8754747-.65902968 1.359-.392c.625.346 1.24.727 1.828 1.134.3605173.2488302.5171199.70333492.3863948 1.12142597-.1307251.41809104-.5183441.70243323-.9563948.70157403zm-5.51-2.689c-.1017984-.00044327-.2029435-.01628934-.3-.047-.616-.193-1.253-.36-1.892-.5-.3514418-.0724971-.6370967-.32774132-.7485303-.66884212-.1114335-.3411008-.0315602-.71575874.2093003-.98175392s.6057779-.38254375.95623-.30540396c.7.149 1.4.333 2.074.545.4727382.1468138.7669249.61739949.691843 1.10668307-.0750819.48928359-.4968351.85000638-.991843.84831693z"/><path id="Shape" d="m44 26c-.5285888.00105-.9666999-.4094601-1-.937l-.031-.5c-.009-.133-.02-.291-.035-.472-.0394573-.3604533.1193012-.7140241.4149035-.9240308.2956022-.2100066.6817266-.2435405 1.0091071-.0876383s.5447158.4768103.5679894.8386691c.017.2.03.373.039.519l.031.5c.0341987.5511654-.3848398 1.0257175-.936 1.06-.018.003-.04.003-.06.003z"/><path id="Shape" d="m20 6.022h-.047c-.3126667-.01466667-.6303333-.022-.953-.022-.5522847 0-1-.44771525-1-1s.4477153-1 1-1c.354 0 .7026667.00766667 1.046.023.5522847.01242641.9899264.47021526.9775 1.0225s-.4702153.9899264-1.0225.9775z"/><path id="Shape" d="m37.177 20.98c-.4507006-.0003587-.8454658-.3021658-.964-.737-.174-.637-.372-1.268-.589-1.876-.1663981-.514022.1055827-1.0672676.6142318-1.2494299.508649-.1821623 1.0700148.0726371 1.2677682.5754299.235.657.449 1.337.637 2.023.0823929.3010207.019522.6232486-.1699862.8712179-.1895081.2479692-.4839211.3932433-.7960138.3927821zm-2.3-5.666c-.3616282.0006652-.6954408-.1939632-.873-.509-.323-.576-.671-1.131-1.033-1.651-.3153546-.4537019-.2032019-1.0771454.2505-1.3925s1.0771454-.2032019 1.3925.2505c.4.572.779 1.181 1.133 1.811.1305009.2311039.1637787.5046063.092503.7602609-.0712756.2556546-.2412577.4724889-.472503.6027391-.1489725.0829759-.3164808.1270027-.487.128zm-3.749-4.814c-.2507869.0000046-.4924208-.0942219-.677-.264-.4711503-.43473139-.9676902-.84111273-1.487-1.217-.4196799-.3323435-.5031924-.93624885-.1894557-1.37001461.3137367-.43376575.9134284-.54351904 1.3604557-.24898539.5835104.42226318 1.1414882.87872973 1.671 1.367.3026658.27922143.403223.71542908.2533419 1.09897425-.149881.38354515-.5195516.63599815-.9313419.63602575zm-5.151-3.245c-.1256446-.00007035-.2501505-.02381808-.367-.07-.5962864-.2358771-1.2060208-.43622794-1.826-.6-.3518855-.08499033-.6303632-.35351989-.7280922-.70208235-.097729-.34856247.000552-.7227266.2569599-.97826861.256408-.255542.6309024-.35255664.9791323-.25364904.696772.18213467 1.3820007.40586919 2.052.67.4478427.17558387.707216.64514293.6174 1.11771663-.0898159.4725737-.5033679.81423863-.9844.81328337z"/><path id="Shape" d="m38.005 26c-.5337015.0006411-.973849-.4179392-1-.951-.014-.3-.038-.618-.07-.945-.0357266-.3554793.1209066-.7030156.4108974-.9116953.2899908-.2086798.6692827-.2467996.9950001-.1.3257173.1467995.548376.456216.5841025.8116953.035.362.062.711.078 1.045.0138862.264975-.0781061.5246059-.2557223.7217279-.1776161.197122-.4262929.3155728-.6912777.3292721z"/><path id="Shape" d="m32 26c-.5278654.0011162-.9656899-.4082497-1-.935 0-.02-.024-.356-.1-.915-.0580585-.3575826.0818144-.718603.365636-.9437284s.6672036-.2791475 1.0021831-.1412167c.3349795.1379307.5691674.4462425.6121809.8059451.095.672.119 1.068.119 1.068.0336234.5507864-.3852548 1.0247094-.936 1.059z"/><path id="Shape" d="m30.985 21.063c-.4360017-.0008458-.8212001-.2840799-.952-.7-.2-.626-.425-1.237-.669-1.815-.1393336-.3290416-.0925415-.7074222.1227501-.9926094.2152916-.2851873.5663748-.4338544.921-.39.3546252.0438543.6589163.2735678.7982499.6026094.268.635.515 1.3.732 1.987.1681637.5260506-.1219533 1.0888239-.648 1.257-.0984689.0324629-.2013266.0496621-.305.051zm-2.661-5.438c-.3218391.0000793-.624046-.1547459-.812-.416-.3664101-.511122-.7673454-.9965879-1.2-1.453-.2466919-.2584817-.3367463-.6289371-.2362405-.9718194.1005057-.3428823.3763023-.6060994.7235-.6905.3471976-.0844006.7130486.0228377.9597405.2813194.497263.5231102.9580137 1.0797532 1.379 1.666.219037.3044588.2492915.7058854.0783622 1.039735s-.5142991.5439824-.8893622.544265zm-4.49-4.016c-.1654956-.0001613-.3283639-.0413938-.474-.12-.5477867-.295032-1.1182682-.5458298-1.706-.75-.5216329-.1819778-.7969778-.75236705-.615-1.27399999s.7523671-.79697782 1.274-.61500001c.6888907.23957802 1.3576609.53350253 2 .879.4031562.21760008.6068842.6813293.4944375 1.1254469-.1124468.4441176-.512306.7550237-.9704375.7545531z"/><path id="Shape" d="m18 10.028h-.058c-.306-.019-.621-.028-.942-.028-.5522847 0-1-.44771525-1-1s.4477153-1 1-1c.36 0 .713.01 1.057.029.5522847.01546397.987464.47571525.972 1.028s-.4757153.987464-1.028.972z"/></g><path id="Shape" d="m31 45c.0034207 2.4594724-1.2883499 4.7390677-3.4 6-1.0848232.6589343-2.3307441 1.0050234-3.6 1-2.2798874.0043858-4.4171153-1.1090651-5.72-2.98h-.01c-1.4714756-2.0944753-1.6800536-4.8258559-.5436687-7.1194768 1.1363848-2.2936208 3.4358503-3.78238 5.9936687-3.8805232h.01c.0889888-.0165897.1795381-.0232971.27-.02 3.863026.0071543 6.9928457 3.136974 7 7z" fill="#95a5a5"/><path id="Shape" d="m58 47c.0018612 1.3266522-.5243253 2.5995034-1.4624109 3.5375891-.9380857.9380856-2.2109369 1.4642721-3.5375891 1.4624109-2.7580047-.008237-4.991763-2.2419953-5-5 0-2.7614237 2.2385763-5 5-5s5 2.2385763 5 5z" fill="#95a5a5"/><circle id="Oval" cx="24" cy="45" fill="#7f8c8d" r="2"/><circle id="Oval" cx="53" cy="47" fill="#7f8c8d" r="1"/></g></g></svg>